# xmcd
#
# Track frame offsets:
#	150
#	18503
#	35050
#	50364
#	67812
#	85889
#	104206
#	117182
#	136421
#	152350
#	170599
#	187036
#	201026
#	217466
#	233940
#	250247
#	265890
#	281996
#	311040
#
# Disc length: 4345 seconds
#
# Revision: 3
# Processed by: cddbd v1.5.2PL0 Copyright (c) Steve Scherf et al.
# Submitted via: EasyCDDAExtractor 11.5.0.1
#
DISCID=2410f713
DTITLE=Various Artist - NCT 053
DYEAR=2003
DGENRE=Country
TTITLE0=Toby Keith - I Love This Bar
TTITLE1=Brad Paisley - Little Moments
TTITLE2=Reba McEntire - I'm Gonna Take That Mountain
TTITLE3=Craig Morgan - Every Friday Afternoon
TTITLE4=Sara Evans - Perfect
TTITLE5=Amy Dalley - I Think You're Beautiful
TTITLE6=Terri Clark - I Wanna Do It All
TTITLE7=The Eagles - Hole In The World
TTITLE8=Roxie Dean - Everyday Girl
TTITLE9=Wynonna Judd - Heaven Help Me
TTITLE10=Jeff Bates - Rainbow Man
TTITLE11=Jack Ingram - Keep On Keepin' On
TTITLE12=Brooks and Dunn - You Can't Take The Honky Tonk Out Of The Girl
TTITLE13=Billy Dean - I'm In Love With You
TTITLE14=Brian McComas - You're In My Head
TTITLE15=Roger Creager - Love Is Crazy
TTITLE16=Daryle Singletary - Kay
TTITLE17=Tim McGraw - Real Good Man/The Ride (Live)
TTITLE18=Brad Wolf - Strictly Business
EXTD=
EXTT0=
EXTT1=
EXTT2=
EXTT3=
EXTT4=
EXTT5=
EXTT6=
EXTT7=
EXTT8=
EXTT9=
EXTT10=
EXTT11=
EXTT12=
EXTT13=
EXTT14=
EXTT15=
EXTT16=
EXTT17=
EXTT18=
PLAYORDER=
